<svg xmlns="http://www.w3.org/2000/svg" xmlns:xlink="http://www.w3.org/1999/xlink" viewBox="0 0 720 720"><defs><clipPath id="a"><path d="M27.51,215.08C98.69,63.57,292.27-10,398.64,40.06c82.79,39,62.15,129,196.12,239.57,70.54,58.2,103.93,56.07,119.16,98.05,31.89,87.93-66.28,230.37-187.43,286.74C366.29,738.94,136.66,676.56,43.64,510.5,35.45,495.88-39.25,357.17,27.51,215.08Z" style="fill:none"/></clipPath></defs><g style="clip-path:url(#a)"><rect x="-41.7" y="-3.56" width="782.05" height="579.55" style="fill:#f9ecc2"/><path d="M-85,511.62c-33,43.55-50.29,121.59-24.32,173.76C-68.59,767.22,43,714,361.4,733.85c171.73,10.7,248.94,33,314.91-33.19,46.65-46.8,79.88-130,57-180.19-8.37-18.33-31.66-48.5-244.2-57.3-84.1-3.48-121.94-.47-225.18,1.58C11.76,469.77-43.87,457.44-85,511.62Z" style="fill:#ffe19f"/><rect x="0.05" y="-55.83" width="340.52" height="435.79" rx="170.26" style="fill:#22b573"/><line x1="170.31" y1="452.85" x2="170.31" y2="111.09" style="fill:#ffe19f;stroke:#006837;stroke-linecap:round;stroke-miterlimit:10;stroke-width:23.1601665791155px"/><line x1="230.89" y1="171" x2="170.31" y2="244.45" style="fill:#ffe19f;stroke:#006837;stroke-linecap:round;stroke-miterlimit:10;stroke-width:23.1601665791155px"/><line x1="91.74" y1="217.96" x2="170.31" y2="320.38" style="fill:#ffe19f;stroke:#006837;stroke-linecap:round;stroke-miterlimit:10;stroke-width:23.1601665791155px"/><rect x="37.92" y="77.67" width="65.84" height="106.93" rx="32.92" style="fill:#39c67f"/><rect x="236" y="242.43" width="37.71" height="53.46" rx="18.86" style="fill:#39c67f"/><rect x="183.38" y="7.59" width="52.62" height="86.31" rx="26.31" style="fill:#39c67f"/><path d="M181.11,497.31c.28-7.07,83-12,155.44-8,17.15.93,69,3.73,69.15,9.05.21,5.61-56.92,13.36-112,13.07C240.88,511.11,180.87,503.36,181.11,497.31Z" style="opacity:0.1"/><path d="M146.78,513.1V464.93l10.82,3.83-5.28,44.48a1.24,1.24,0,0,1-1.24,1.1H148A1.25,1.25,0,0,1,146.78,513.1Z" style="fill:#603813"/><polygon points="417.48 514.34 417.48 452.44 407.04 457.24 412.26 514.34 417.48 514.34" style="fill:#603813"/><path d="M142.48,475.23H422.85a5.8,5.8,0,0,0,5.22-8.31l-6.89-14.28a5.81,5.81,0,0,0-5.22-3.28H149.57a5.79,5.79,0,0,0-5.18,3.22l-7.1,14.28A5.79,5.79,0,0,0,142.48,475.23Z" style="fill:#a67c52"/><path d="M134.25,374.86l10.1,60.6a5.79,5.79,0,0,0,5.71,4.84H415.85a5.78,5.78,0,0,0,5.77-5.4l4.21-62.85a5.78,5.78,0,0,0-5.82-6.17l-280.1,2.24A5.79,5.79,0,0,0,134.25,374.86Z" style="fill:#8c6239"/><path d="M149.69,479.78H430.06a5.79,5.79,0,0,0,5.22-8.3l-6.9-14.29a5.78,5.78,0,0,0-5.21-3.27H156.78a5.77,5.77,0,0,0-5.18,3.21l-7.1,14.29A5.79,5.79,0,0,0,149.69,479.78Z" style="fill:none;stroke:#8c6239;stroke-miterlimit:10;stroke-width:1.44751041119472px"/><path d="M128.56,369l10.1,60.6a5.8,5.8,0,0,0,5.71,4.84H410.16a5.8,5.8,0,0,0,5.78-5.41l4.21-62.84a5.8,5.8,0,0,0-5.82-6.18l-280.1,2.24A5.8,5.8,0,0,0,128.56,369Z" style="fill:none;stroke:#754c24;stroke-miterlimit:10;stroke-width:1.44751041119472px"/><path d="M149.46,389h26.06a.73.73,0,0,0,0-1.45H149.46a.73.73,0,0,0,0,1.45Z" style="fill:#42210b"/><path d="M342.8,426.4a157.46,157.46,0,0,0,27.63-.76c.92-.11.93-1.56,0-1.45a158.43,158.43,0,0,1-27.63.77c-.93-.06-.93,1.39,0,1.44Z" style="fill:#42210b"/><path d="M409,392.2l-27.05.24-27.05.25-15.2.14a.72.72,0,0,0,0,1.44l27.05-.24,27-.25,15.2-.13a.73.73,0,0,0,0-1.45Z" style="fill:#42210b"/><path d="M170.31,401.47H272.44a.73.73,0,0,0,0-1.45H170.31a.73.73,0,0,0,0,1.45Z" style="fill:#42210b"/><path d="M294.8,612.53c-4.57-6,13.17-15.81,79.76-16.35,61.88-.51,61.17-2,89.48-2.89,25.26-.82,73.43,6.82,69.86,12.38-2.1,3.26-16.41,13.19-82.71,14.14-3.91.06-37.1,7.44-105.4,3.4C338.49,622.78,297.75,616.39,294.8,612.53Z" style="opacity:0.1"/><path d="M360.13,321.28s-2.39-3.28-5.11-4.35c-1.34-.52-6.49-1.57-7.78-2.29-3.39-1.91-2.79-5.42-3.41-6.11-1.21-1.37-.18-4-.18-4l18.6-5.51-.47,10.66Z" style="fill:#ffca8a"/><path d="M359.77,309.22l-6.77,3.1a2.23,2.23,0,0,1-3-1.07l-13.47-28.4a1.12,1.12,0,0,1,1-1.6l9.33-.26a1.77,1.77,0,0,1,1.63,1l12.32,24.2A2.25,2.25,0,0,1,359.77,309.22Z" style="stroke:gray;stroke-miterlimit:10;stroke-width:1.44751041119472px"/><path d="M368.56,314.57s-3.7-4.25-3.51-6.09a22.85,22.85,0,0,0-1.06-6.31c-.46-1.42-1-3.94-3.11-4.15-1.88-.17-4.56-2.06-6.46-2.39-.89-.16-1.94-2-3.25-1.81-.42.06-.75,1.08-.82,1.5a3.1,3.1,0,0,0,.63,2.2c1.48,2,5.59,2.82,7.38,4.35.82.7-.54,3.7.09,6.06s1.37,6,1.95,6.12-.27,7.23-.27,7.23Z" style="fill:#ffca8a"/><path d="M353.62,309.66l-.12-.13a4,4,0,0,0-1.53-.4h-.09a2,2,0,0,0,1-2.44.77.77,0,0,0-.1-.18,4,4,0,0,0-1.37-.8,1.9,1.9,0,0,0,.33-1.67.76.76,0,0,0-.08-.2,4.92,4.92,0,0,0-1.65-1.16,1.89,1.89,0,0,0-.52-.18,1.81,1.81,0,0,0,.6-1.94.75.75,0,0,0-.08-.18,4.54,4.54,0,0,0-1.53-1,2,2,0,0,0-1.09-.16s-3.85-.2-4.68.64c-1.33,1.35-.51,4.25.52,7.56.81,2.6,5.84,6.61,6.12,6.46l3.58-1.8A1.7,1.7,0,0,0,353.62,309.66Z" style="fill:#ffca8a"/><path d="M456.85,325.17c-41.34,44.84-74.18,51.35-98.93-6.31,5,1.67,7.86-5.38,7.82-8.22,0,0,26.17,29.38,37.43,27.1,9.26-3.52,17.73-23.16,23.18-30.74C443.49,286.25,463.67,308.12,456.85,325.17Z" style="fill:#0f3460"/><path d="M407.19,598a14.33,14.33,0,0,0,3.45,9.77s-12.86,8.7-15,9-11.66-9.8-8.15-10.25c3.75-.47,5.1-2.55,6.4-4.13,1.6-1.94.74-5.32,1.23-7.82S407.19,598,407.19,598Z" style="fill:#ffca8a"/><path d="M537.19,563.58a14.37,14.37,0,0,0,9.95,2.92s-.47,15.51-1.52,17.41-15.11,3.22-13.41.11a8,8,0,0,0,.72-7.09c-.64-2.44-3.88-3.71-5.63-5.58S537.19,563.58,537.19,563.58Z" style="fill:#ffca8a"/><path d="M556.48,571.86c7.44,7.22-13.12,28.59-18,32-11.08,7.77-22.7-1-16-6.31s10.66-15.81,10.66-15.81c.22-2.59,1.19-5,5.64-3.61.46.15,2.3.52,2.62,0a5.33,5.33,0,0,0,.75-1.6c3-7.16.76-10.28.76-10.28S549.36,565,556.48,571.86Z" style="fill:#0f3460"/><path d="M472.2,420.88v0c-.11.34-1,3.16-2.43,7.16-2.91,8.23-7.92,21.5-12.46,28.94-5.31,8.7-14.05,25.6-14.85,27.16l-.06.12C439,492,435.75,499.71,433,506.94a511.09,511.09,0,0,0-25.74,92.17s-3.51,2.62-6.5,2.62c-4.77,0-6-1.45-6-1.45s-7.13-52.88,2.73-127c2.29-17.15,5.88-34.52,9.41-49.29,3.43,5.68,10.7,8.09,19.29,8.44,12.88.53,28.73-3.52,39.1-8A50.54,50.54,0,0,0,472.2,420.88Z" style="fill:#f05454"/><path d="M472.19,420.9l-13.44,88.4s-.15-.18-.31-.39l-.05-.09-.07-.09L455.57,505c-.15-.22-.31-.43-.47-.65-1.55-2.13-3.26-4.49-4.46-6.2l-.23-.32-.21-.31c-.18-.26-.34-.51-.49-.72l-.75-1.15c-.25-.39-.51-.78-.75-1.18l-.16-.26c-.16-.24-.3-.48-.45-.73a0,0,0,0,1,0,0c-.16-.25-.31-.5-.46-.75l-.89-1.51c-.44-.73-.85-1.46-1.24-2.15l-1.07-1.91-.58-1.06c-.09-.16-.17-.32-.25-.45a.41.41,0,0,0-.05-.09l-.16-.31a1.45,1.45,0,0,0-.12-.22l-.06-.11a1.09,1.09,0,0,1-.08-.15,1.33,1.33,0,0,1-.06-.12l-.18-.33.06-.12c.8-1.56,9.54-18.46,14.85-27.16,4.54-7.44,9.55-20.71,12.46-28.94C471.16,424.06,472.08,421.24,472.19,420.9Z" style="fill:#822222"/><path d="M455.21,290.94c.31,1.17-.13-.37.28.89a37.6,37.6,0,0,1,7.44,4.18c5.55,3.95,9.22,9.06,11.28,10.43,6.31,4.2,13.33-.38,12-2.48-2.24-3.45-7.53-1.51-12.36-3.95C467.22,296.68,461.76,291.38,455.21,290.94Z" style="fill:#e94560"/><path d="M450.2,497.51c2.18,3.15,7,9.7,8.24,11.4C455.61,505.24,452.85,501.44,450.2,497.51Z" style="fill:#f05454"/><path d="M453.89,301.24a17.11,17.11,0,0,0-4.08-1.39A8.94,8.94,0,0,1,453.89,301.24Z" style="fill:#ffca8a"/><path d="M448.21,494.46c.24.4.5.79.75,1.18C448.72,495.25,448.46,494.86,448.21,494.46Z" style="fill:#822222"/><path d="M442.57,484.61c.64,1.21,3,5.59,5.48,9.59C446.05,491,444.22,487.83,442.57,484.61Z" style="fill:#f05454"/><path d="M458.58,304.73l-.17.09a36.1,36.1,0,0,0-4.49-3.56,14.9,14.9,0,0,1,1.61.89A13.34,13.34,0,0,1,458.58,304.73Z" style="fill:#10101e"/><path d="M443.05,277.57,438,289.09H423.08c4.23-1.79,11.77-4.51,15.73-6.76C439.32,281.62,442.83,277.81,443.05,277.57Z" style="fill:#603813"/><path d="M534.18,569.75a12.26,12.26,0,0,1-4.92,3.24s-34.6-20.84-63.87-55.47c-2.24-2.66-4.47-5.4-6.64-8.22l13.44-88.4v0c2.12-1.36,3.51-2.65,3.92-3.76a17.57,17.57,0,0,0,.55-1.74c2.38,16.47,3.1,54.5,20.43,79.47,14.12,20.33,40.09,68.73,40.09,68.73S537.73,566,534.18,569.75Z" style="fill:#f05454"/><path d="M455.49,291.83a23.28,23.28,0,0,0-19.37.21,9.24,9.24,0,0,0-1.21-3H438l5.06-11.52c-5,8.82-13.52,8.8-20,11.52-3.29-1.91-7.85-9-11.31-17.7l-.53-1.38c-.82-2.19-1.57-4.47-2.21-6.78,22-2.33,16.21-20,32.12,4.66-2.42-9.68,2.41-16.91,7-8.16,1,1.91-.21,6.22.45,9.06.38,3,3.07,8.83,4,9.48A70,70,0,0,0,455.49,291.83Z" style="fill:#ffca8a"/><path d="M459.57,306c-.36-.38-.75-.78-1.16-1.17l.17-.09c.12.12.21.24.31.35A11.32,11.32,0,0,1,459.57,306Z" style="fill:#10101e"/><path d="M452.59,278.16a.51.51,0,0,0,0,.09,21.25,21.25,0,0,1-.16-4.3c.34-1.78.63-3.44.86-5,.26-7.14-.14-16.3-3.45-19.54-5.71-5.59-19.38-3.67-28.11,1.92-4.09,2.62-9.57,4.07-14.23,4.86a69.73,69.73,0,0,1-9.52.95c-6.3-1.54-12.45-11.84-11.56-11.82,0,0,13.14-1.35,18.69-4.22,7.15-3.7,18.56-8.62,26.54-10.29C440.4,229,446.14,236,446.14,236s6.68,2.32,8,3.87C462.15,249.34,453.07,276.07,452.59,278.16Z" style="fill:#603813"/><path d="M452.41,274a21.25,21.25,0,0,0,.16,4.3v0a17.05,17.05,0,0,1-2.68-5,24.2,24.2,0,0,1-1.3-4.49c-.66-2.84.56-7.15-.45-9.06-4.59-8.75-9.42-1.52-7,8.16,0,0-9.78-15.34-13.57-12-7.3,6.52-14.39,7.46-18.55,7.3a15.33,15.33,0,0,1-3.74-.54s-10.22-4.78-12.25-8.33c0,0,9.17,2.73,14.45,1.84,4.66-.79,10.14-2.24,14.23-4.86,8.73-5.59,22.4-7.51,28.11-1.92,3.31,3.24,3.71,12.4,3.45,19.54C453,270.51,452.75,272.17,452.41,274Z" style="fill:#42210b"/><path d="M408.36,604.18s6,4.25,3.71,13.94c-1.15,4.93-9.34,5.09-17.19,5.48-8.23.41-16.18.91-19.08,0-7.1-2.16-10.24-3.46-10.37-7.53-.11-3.35-.77-7.32,3.08-7.44,9.26-.3,23.32-4,23.32-4s-.77-.15,2.05,1.3c.36.19.16,3.06,2.36,3.54a8,8,0,0,0,2.43.18C408.28,609.7,408.36,604.18,408.36,604.18Z" style="fill:#0f3460"/><path d="M435.61,268.41,442,258.3a1.35,1.35,0,0,1,2.33.06l4,7.22-6.64,13.59" style="fill:none;stroke:#fff;stroke-miterlimit:10;stroke-width:1.44751041119472px"/><path d="M441,267.49c-2.92-4.32.25-11.14,2.41-12.31,1.93-1,4.79.74,5.65,3.8,1,3.63-.25,10.2-3,10.92C444.2,270.41,442.14,269.12,441,267.49Z" style="fill:#ffca8a"/><path d="M436.32,266.65s-.44,9.45-6,13.5a25,25,0,0,1-11.36,4.76l-4.61-.18c-.45-2.82-1.67-11.1-1.69-11.23C412.88,273.68,436.32,266.65,436.32,266.65Z" style="fill:#fff"/><path d="M443.66,276.45s-1.73,7.41-14.8,13.31c-1.59.72-6.94,1.43-14.53-5l22-18.08s-.11,6.24,1,7.87C439.43,277.57,443.66,276.45,443.66,276.45Z" style="fill:#e6e6e6"/><path d="M364.87,615.48a13.24,13.24,0,0,1,.75-4.83s-.65,3.65,1.44,6.07c2.54,2.95,8.06,4.62,20.51,4.18,25.14-.9,25-8.06,25-8.06s2.18,5,1.33,6.29c-3.32,5.06-17,4.68-24.44,5.35-14.26,1.28-19.66-1.07-21.26-2.5C364.87,619,365,616.71,364.87,615.48Z" style="fill:#fff"/><path d="M476.67,415.38a17.57,17.57,0,0,1-.55,1.74c-.41,1.11-1.8,2.4-3.92,3.76a50.54,50.54,0,0,1-6.93,3.56c-10.37,4.48-26.22,8.53-39.1,8-8.59-.35-15.86-2.76-19.29-8.44a13.73,13.73,0,0,1-1.62-4c-.55-2.21-.46-6.33.06-11.7h0a27.36,27.36,0,0,1-.43-9.18c.74-5.24,3.23-11,4.3-17,1.18-6.67,8.14-73,18.11-80.55,7.68-8.3,20.49-7.65,25.6-6.73,22,4,14.92,44.44,17.8,44.75a3,3,0,0,0,1.35-.17A185.56,185.56,0,0,0,470.87,364C471.15,379.81,480.69,400.89,476.67,415.38Z" style="fill:#1a1a2e"/><line x1="418.95" y1="332.54" x2="418.95" y2="339.23" style="fill:none;stroke:#fff;stroke-linecap:round;stroke-miterlimit:10;stroke-width:1.44751041119472px"/><path d="M424.9,306.63c-1.41,4.68-6.29,17.83-5.94,27.34" style="fill:none;stroke:#e94560;stroke-linecap:round;stroke-miterlimit:10;stroke-width:4.34253123358416px"/><path d="M481,325.28c-7.45,19.71-14.21,19.58-16.13-4.89,0-7-2.19-17.43-10.53-20.19-22.8-7.54-29,12.06-29,12.06-.35-.9-2.19-5.86-2.55-6.8,1.24-8.72,16.64-16,23.95-15.62,15.48.78,21.81,11.72,27.42,16.15,4.95,3.92,12.21,1.14,12.12-1.61C486.43,307.77,486.2,311.19,481,325.28Z" style="fill:#10101e"/><path d="M459,306.38c32.73,50.26,15.54,83.86-37.77,100l-3.74-10.22s28.74-24.43,31.23-35.65c.92-3.19-2.8-10.31-6.14-15.43-5.62-10-14.05-16.25-15.44-26.63C426.44,296.59,452.48,296.37,459,306.38Z" style="fill:#0f3460"/><path d="M405.65,409.57a26.82,26.82,0,0,0,5,5.75c3.1,2.49,11.8,5,15,5.22a20.81,20.81,0,0,0,2.28,0l.21-2.78.42-5.94s-7.15-2.15-10.06-8.67c-3.16-7.07,1.6-16.92,1.6-16.92l-2.09-.91L410,381.81" style="fill:none;stroke:#e94560;stroke-linecap:round;stroke-linejoin:round;stroke-width:4.34253123358416px"/><path d="M524.29,607.2a13.18,13.18,0,0,1-3-3.86s2.21,3,5.41,3.12c3.89.16,8.89-2.71,17.09-12.1,16.55-18.93,10.09-24.71,10.09-24.71s5.3,2.55,5.66,4.06c1.42,5.88-7.23,15.84-11.84,21.72-8.83,11.27-14.24,13.6-16.37,13.79C526.86,609.61,525.3,607.92,524.29,607.2Z" style="fill:#fff"/><path d="M350.33,246.44l-1.53-1.26a61.76,61.76,0,0,0-39.23-14.06H237.86a23,23,0,0,1-23-23V143a23,23,0,0,1,23-23h89.49a23,23,0,0,1,23,23Z" style="fill:#fff"/><text transform="translate(261.59 193.36)" style="font-size:42.03125px;fill:#666;font-family:Arial-BoldMT, Arial;font-weight:700">Hi</text></g><rect x="528.79" y="206.1" width="140.65" height="180.01" rx="70.33" transform="translate(1198.23 592.21) rotate(-180)" style="fill:#22b573"/><line x1="599.12" y1="416.22" x2="599.12" y2="254.56" style="fill:#ffe19f;stroke:#006837;stroke-linecap:round;stroke-miterlimit:10;stroke-width:11.5800832895578px"/><line x1="574.09" y1="299.8" x2="599.12" y2="330.14" style="fill:#ffe19f;stroke:#006837;stroke-linecap:round;stroke-miterlimit:10;stroke-width:11.5800832895578px"/><rect x="626.6" y="261.25" width="27.2" height="44.17" rx="13.6" transform="translate(1280.4 566.66) rotate(180)" style="fill:#39c67f"/><rect x="556.41" y="329.3" width="15.58" height="22.08" rx="7.79" transform="translate(1128.39 680.69) rotate(180)" style="fill:#39c67f"/><rect x="564.75" y="232.3" width="21.73" height="35.65" rx="10.87" transform="translate(1151.23 500.25) rotate(180)" style="fill:#39c67f"/></svg>